<mxfile host="app.diagrams.net" agent="Mozilla/5.0 (Windows NT 10.0; Win64; x64) AppleWebKit/537.36 (KHTML, like Gecko) Chrome/128.0.0.0 Safari/537.36" version="24.7.12">
  <diagram id="C5RBs43oDa-KdzZeNtuy" name="Page-1">
    <mxGraphModel dx="1050" dy="557" grid="1" gridSize="10" guides="1" tooltips="1" connect="1" arrows="1" fold="1" page="1" pageScale="1" pageWidth="827" pageHeight="1169" math="0" shadow="0">
      <root>
        <mxCell id="WIyWlLk6GJQsqaUBKTNV-0" />
        <mxCell id="WIyWlLk6GJQsqaUBKTNV-1" parent="WIyWlLk6GJQsqaUBKTNV-0" />
        <mxCell id="zkfFHV4jXpPFQw0GAbJ--0" value="Periodo" style="swimlane;fontStyle=2;align=center;verticalAlign=top;childLayout=stackLayout;horizontal=1;startSize=26;horizontalStack=0;resizeParent=1;resizeLast=0;collapsible=1;marginBottom=0;rounded=0;shadow=0;strokeWidth=1;" parent="WIyWlLk6GJQsqaUBKTNV-1" vertex="1">
          <mxGeometry x="134" y="120" width="280" height="318" as="geometry">
            <mxRectangle x="230" y="140" width="160" height="26" as="alternateBounds" />
          </mxGeometry>
        </mxCell>
        <mxCell id="zkfFHV4jXpPFQw0GAbJ--1" value="horaInicio : LocalTime;&#xa;&#xa;horaFim : LocalTime;&#xa;&#xa;disciplina : Disciplina;&#xa;" style="text;align=left;verticalAlign=top;spacingLeft=4;spacingRight=4;overflow=hidden;rotatable=0;points=[[0,0.5],[1,0.5]];portConstraint=eastwest;" parent="zkfFHV4jXpPFQw0GAbJ--0" vertex="1">
          <mxGeometry y="26" width="280" height="84" as="geometry" />
        </mxCell>
        <mxCell id="zkfFHV4jXpPFQw0GAbJ--4" value="" style="line;html=1;strokeWidth=1;align=left;verticalAlign=middle;spacingTop=-1;spacingLeft=3;spacingRight=3;rotatable=0;labelPosition=right;points=[];portConstraint=eastwest;" parent="zkfFHV4jXpPFQw0GAbJ--0" vertex="1">
          <mxGeometry y="110" width="280" height="8" as="geometry" />
        </mxCell>
        <mxCell id="zkfFHV4jXpPFQw0GAbJ--5" value="Disciplina getDisciplina() : Disciplina;&#xa;&#xa;LocalTime getHoraInicio() : LocalTime;&#xa;&#xa;void setHoraInicio(LocalTime horaInicio) : void;&#xa;&#xa;LocalTime getHoraFim() : LocalTime;&#xa;&#xa;void setHoraFim(LocalTime horaFim) : void;&#xa;&#xa;void setDisciplina(Disciplina disciplina) : void;&#xa;&#xa;String toString() ;&#xa;" style="text;align=left;verticalAlign=top;spacingLeft=4;spacingRight=4;overflow=hidden;rotatable=0;points=[[0,0.5],[1,0.5]];portConstraint=eastwest;" parent="zkfFHV4jXpPFQw0GAbJ--0" vertex="1">
          <mxGeometry y="118" width="280" height="200" as="geometry" />
        </mxCell>
        <mxCell id="zkfFHV4jXpPFQw0GAbJ--17" value="Horario" style="swimlane;fontStyle=0;align=center;verticalAlign=top;childLayout=stackLayout;horizontal=1;startSize=26;horizontalStack=0;resizeParent=1;resizeLast=0;collapsible=1;marginBottom=0;rounded=0;shadow=0;strokeWidth=1;" parent="WIyWlLk6GJQsqaUBKTNV-1" vertex="1">
          <mxGeometry x="510" y="120" width="490" height="810" as="geometry">
            <mxRectangle x="550" y="140" width="160" height="26" as="alternateBounds" />
          </mxGeometry>
        </mxCell>
        <mxCell id="zkfFHV4jXpPFQw0GAbJ--18" value="DURACAO_AULA_MINUTOS : integer;&#xa;&#xa;DURACAO_INTERVALO_MINUTOS : integer;&#xa;&#xa;HORA_INICIO : LocalTime;&#xa;&#xa;HORA_FINAL : LocalTime;&#xa;&#xa;HORA_ALMOCO_INICIO : LocalTime;&#xa;&#xa;HORA_ALMOCO_FINAL : LocalTime;&#xa;&#xa;contadorGeralDeAulas : integer;&#xa;&#xa;periodos : ArrayList&lt;Periodo&gt;;&#xa;&#xa;intervalo : boolean;&#xa;&#xa;horario : Map&lt;String, List&lt;Periodo&gt;&gt;;&#xa;&#xa;diasDaSemana : String[] = {&quot;Segunda-feira&quot;, &quot;Terça-feira&quot;, &#xa;&quot;Quarta-feira&quot;, &quot;Quinta-feira&quot;, &quot;Sexta-feira&quot;};" style="text;align=left;verticalAlign=top;spacingLeft=4;spacingRight=4;overflow=hidden;rotatable=0;points=[[0,0.5],[1,0.5]];portConstraint=eastwest;" parent="zkfFHV4jXpPFQw0GAbJ--17" vertex="1">
          <mxGeometry y="26" width="490" height="324" as="geometry" />
        </mxCell>
        <mxCell id="zkfFHV4jXpPFQw0GAbJ--23" value="" style="line;html=1;strokeWidth=1;align=left;verticalAlign=middle;spacingTop=-1;spacingLeft=3;spacingRight=3;rotatable=0;labelPosition=right;points=[];portConstraint=eastwest;" parent="zkfFHV4jXpPFQw0GAbJ--17" vertex="1">
          <mxGeometry y="350" width="490" height="8" as="geometry" />
        </mxCell>
        <mxCell id="zkfFHV4jXpPFQw0GAbJ--24" value="getDURACAO_AULA_MINUTOS() : int;&#xa;&#xa;getDURACAO_INTERVALO_MINUTOS() : int;&#xa;&#xa;getHORA_INICIO() : LocalTime;&#xa;&#xa;getHORA_FINAL() : LocalTime;&#xa;&#xa;getHORA_ALMOCO_INICIO() : LocalTime;&#xa;&#xa;getHORA_ALMOCO_FINAL() : LocalTime;&#xa;&#xa;getContadorGeralDeAulas() : int;&#xa;&#xa;inicializarHorario() : void;&#xa;&#xa;gerarPeriodosAula() : List&lt;Periodo&gt;;&#xa;&#xa;exibirHorario() : void;&#xa;&#xa;adicionarDisciplina(String dia, ArrayList&lt;Disciplina&gt; disciplinas) : boolean;&#xa;&#xa;adicionarDisciplina(Disciplina disciplina, Periodo periodo) : boolean;&#xa;&#xa;adicionarDisciplina(String dia, Disciplina disciplina, LocalTime inicio) : boolean;&#xa;&#xa;adicionarDisciplina(String dia, ArrayList&lt;Disciplina&gt; disciplinas, int posicao) : boolean;&#xa;&#xa;removerTodasDisciplinas(String dia) : boolean;&#xa;&#xa;removerDisciplinaDia(String dia, LocalTime inicio) : boolean;&#xa;&#xa;&#xa;&#xa;&#xa;&#xa;&#xa;" style="text;align=left;verticalAlign=top;spacingLeft=4;spacingRight=4;overflow=hidden;rotatable=0;points=[[0,0.5],[1,0.5]];portConstraint=eastwest;" parent="zkfFHV4jXpPFQw0GAbJ--17" vertex="1">
          <mxGeometry y="358" width="490" height="452" as="geometry" />
        </mxCell>
      </root>
    </mxGraphModel>
  </diagram>
</mxfile>
